OstrichSans-Rounded.ufo
<glyph name="exclam" format="1">
  <advance width="93"/>
  <unicode hex="0021"/>
  <outline>
    <contour>
      <point x="35" y="674"/>
      <point x="42" y="667"/>
      <point x="42" y="659" type="curve" smooth="yes"/>
      <point x="42" y="114" type="line" smooth="yes"/>
      <point x="42" y="103"/>
      <point x="37" y="98"/>
      <point x="26" y="98" type="curve" smooth="yes"/>
      <point x="15" y="98"/>
      <point x="10" y="103"/>
      <point x="10" y="114" type="curve" smooth="yes"/>
      <point x="10" y="659" type="line" smooth="yes"/>
      <point x="10" y="667"/>
      <point x="17" y="674"/>
      <point x="26" y="674" type="curve" smooth="yes"/>
    </contour>
    <contour>
      <point x="35" y="43"/>
      <point x="42" y="36"/>
      <point x="42" y="28" type="curve" smooth="yes"/>
      <point x="42" y="16" type="line" smooth="yes"/>
      <point x="42" y="5"/>
      <point x="37" y="0"/>
      <point x="26" y="0" type="curve" smooth="yes"/>
      <point x="15" y="0"/>
      <point x="10" y="5"/>
      <point x="10" y="16" type="curve" smooth="yes"/>
      <point x="10" y="28" type="line" smooth="yes"/>
      <point x="10" y="36"/>
      <point x="17" y="43"/>
      <point x="26" y="43" type="curve" smooth="yes"/>
    </contour>
  </outline>
</glyph>
<glyph name="numbersign" format="1">
  <advance width="542"/>
  <unicode hex="0023"/>
  <outline>
    <contour>
      <point x="473" y="447" type="line" smooth="yes"/>
      <point x="484" y="447"/>
      <point x="489" y="442"/>
      <point x="489" y="431" type="curve" smooth="yes"/>
      <point x="489" y="423"/>
      <point x="482" y="416"/>
      <point x="473" y="416" type="curve" smooth="yes"/>
      <point x="362" y="416" type="line"/>
      <point x="331" y="258" type="line"/>
      <point x="442" y="258" type="line" smooth="yes"/>
      <point x="450" y="258"/>
      <point x="457" y="251"/>
      <point x="457" y="242" type="curve" smooth="yes"/>
      <point x="457" y="234"/>
      <point x="450" y="226"/>
      <point x="442" y="226" type="curve" smooth="yes"/>
      <point x="325" y="226" type="line"/>
      <point x="283" y="13" type="line"/>
      <point x="282" y="4"/>
      <point x="277" y="0"/>
      <point x="268" y="0" type="curve" smooth="yes"/>
      <point x="265" y="0" type="line"/>
      <point x="255" y="2"/>
      <point x="251" y="8"/>
      <point x="252" y="19" type="curve"/>
      <point x="293" y="226" type="line"/>
      <point x="152" y="226" type="line"/>
      <point x="110" y="13" type="line" smooth="yes"/>
      <point x="108" y="4"/>
      <point x="103" y="0"/>
      <point x="94" y="0" type="curve" smooth="yes"/>
      <point x="91" y="0" type="line"/>
      <point x="83" y="3"/>
      <point x="76" y="10"/>
      <point x="79" y="19" type="curve"/>
      <point x="120" y="226" type="line"/>
      <point x="-5" y="226" type="line" smooth="yes"/>
      <point x="-13" y="226"/>
      <point x="-20" y="234"/>
      <point x="-20" y="242" type="curve" smooth="yes"/>
      <point x="-20" y="251"/>
      <point x="-13" y="258"/>
      <point x="-5" y="258" type="curve" smooth="yes"/>
      <point x="126" y="258" type="line"/>
      <point x="157" y="416" type="line"/>
      <point x="27" y="416" type="line" smooth="yes"/>
      <point x="18" y="416"/>
      <point x="11" y="423"/>
      <point x="11" y="431" type="curve" smooth="yes"/>
      <point x="11" y="442"/>
      <point x="16" y="447"/>
      <point x="27" y="447" type="curve" smooth="yes"/>
      <point x="163" y="447" type="line"/>
      <point x="205" y="662" type="line"/>
      <point x="208" y="670"/>
      <point x="215" y="677"/>
      <point x="223" y="674" type="curve"/>
      <point x="232" y="671"/>
      <point x="239" y="664"/>
      <point x="236" y="656" type="curve"/>
      <point x="195" y="447" type="line"/>
      <point x="336" y="447" type="line"/>
      <point x="378" y="662" type="line"/>
      <point x="381" y="670"/>
      <point x="388" y="677"/>
      <point x="397" y="674" type="curve"/>
      <point x="405" y="671"/>
      <point x="412" y="664"/>
      <point x="409" y="656" type="curve"/>
      <point x="368" y="447" type="line"/>
    </contour>
    <contour>
      <point x="330" y="416" type="line"/>
      <point x="189" y="416" type="line"/>
      <point x="158" y="258" type="line"/>
      <point x="299" y="258" type="line"/>
    </contour>
  </outline>
</glyph>
<glyph name="parenleft" format="1">
  <advance width="166"/>
  <unicode hex="0028"/>
  <outline>
    <contour>
      <point x="104" y="5"/>
      <point x="98" y="10"/>
      <point x="88" y="19" type="curve"/>
      <point x="77" y="28"/>
      <point x="66" y="45"/>
      <point x="55" y="70" type="curve"/>
      <point x="24" y="133"/>
      <point x="9" y="222"/>
      <point x="9" y="337" type="curve" smooth="yes"/>
      <point x="9" y="473"/>
      <point x="32" y="556"/>
      <point x="56" y="606" type="curve" smooth="yes"/>
      <point x="67" y="631"/>
      <point x="78" y="648"/>
      <point x="88" y="658" type="curve"/>
      <point x="98" y="667"/>
      <point x="103" y="672"/>
      <point x="104" y="673" type="curve"/>
      <point x="108" y="676"/>
      <point x="113" y="677"/>
      <point x="118" y="676" type="curve"/>
      <point x="121" y="675"/>
      <point x="123" y="673"/>
      <point x="125" y="670" type="curve"/>
      <point x="128" y="664"/>
      <point x="129" y="659"/>
      <point x="127" y="654" type="curve"/>
      <point x="126" y="651"/>
      <point x="124" y="649"/>
      <point x="122" y="647" type="curve"/>
      <point x="114" y="640"/>
      <point x="105" y="631"/>
      <point x="96" y="616" type="curve"/>
      <point x="91" y="609"/>
      <point x="86" y="599"/>
      <point x="81" y="588" type="curve" smooth="yes"/>
      <point x="62" y="545"/>
      <point x="40" y="469"/>
      <point x="40" y="337" type="curve" smooth="yes"/>
      <point x="40" y="205"/>
      <point x="62" y="129"/>
      <point x="81" y="88" type="curve" smooth="yes"/>
      <point x="91" y="67"/>
      <point x="100" y="51"/>
      <point x="108" y="42" type="curve"/>
      <point x="112" y="37"/>
      <point x="116" y="33"/>
      <point x="121" y="30" type="curve"/>
      <point x="124" y="29"/>
      <point x="126" y="27"/>
      <point x="127" y="24" type="curve"/>
      <point x="132" y="13"/>
      <point x="124" y="4"/>
      <point x="119" y="2" type="curve" smooth="yes"/>
      <point x="114" y="0"/>
      <point x="109" y="1"/>
      <point x="105" y="4" type="curve"/>
    </contour>
  </outline>
</glyph>
<glyph name="parenright" format="1">
  <advance width="158"/>
  <unicode hex="0029"/>
  <outline>
    <contour>
      <point x="28" y="1"/>
      <point x="19" y="-4"/>
      <point x="12" y="8" type="curve"/>
      <point x="7" y="15"/>
      <point x="8" y="20"/>
      <point x="11" y="24" type="curve"/>
      <point x="12" y="27"/>
      <point x="14" y="29"/>
      <point x="17" y="30" type="curve"/>
      <point x="24" y="35"/>
      <point x="32" y="45"/>
      <point x="42" y="60" type="curve" smooth="yes"/>
      <point x="52" y="75"/>
      <point x="62" y="96"/>
      <point x="71" y="126" type="curve" smooth="yes"/>
      <point x="80" y="156"/>
      <point x="89" y="196"/>
      <point x="94" y="248" type="curve" smooth="yes"/>
      <point x="97" y="274"/>
      <point x="98" y="304"/>
      <point x="98" y="337" type="curve" smooth="yes"/>
      <point x="98" y="469"/>
      <point x="76" y="545"/>
      <point x="57" y="588" type="curve" smooth="yes"/>
      <point x="47" y="610"/>
      <point x="38" y="625"/>
      <point x="30" y="634" type="curve"/>
      <point x="21" y="643"/>
      <point x="17" y="647"/>
      <point x="16" y="647" type="curve"/>
      <point x="17" y="647" type="line"/>
      <point x="13" y="651"/>
      <point x="10" y="656"/>
      <point x="10" y="661" type="curve"/>
      <point x="9" y="666"/>
      <point x="15" y="675"/>
      <point x="20" y="676" type="curve" smooth="yes"/>
      <point x="25" y="677"/>
      <point x="30" y="676"/>
      <point x="34" y="673" type="curve"/>
      <point x="35" y="672"/>
      <point x="40" y="667"/>
      <point x="51" y="658" type="curve"/>
      <point x="61" y="648"/>
      <point x="72" y="631"/>
      <point x="83" y="606" type="curve" smooth="yes"/>
      <point x="106" y="556"/>
      <point x="129" y="473"/>
      <point x="129" y="337" type="curve" smooth="yes"/>
      <point x="129" y="223"/>
      <point x="114" y="134"/>
      <point x="84" y="70" type="curve" smooth="yes"/>
      <point x="72" y="45"/>
      <point x="61" y="28"/>
      <point x="51" y="19" type="curve"/>
      <point x="40" y="10"/>
      <point x="34" y="5"/>
      <point x="33" y="4" type="curve"/>
    </contour>
  </outline>
</glyph>
<glyph name="asterisk" format="1">
  <advance width="295"/>
  <unicode hex="002A"/>
  <outline>
    <contour>
      <point x="251" y="584"/>
      <point x="247" y="575"/>
      <point x="239" y="572" type="curve" smooth="yes"/>
      <point x="157" y="541" type="line"/>
      <point x="219" y="471" type="line"/>
      <point x="226" y="464"/>
      <point x="224" y="456"/>
      <point x="217" y="449" type="curve" smooth="yes"/>
      <point x="214" y="446"/>
      <point x="211" y="445"/>
      <point x="207" y="445" type="curve" smooth="yes"/>
      <point x="202" y="445"/>
      <point x="198" y="447"/>
      <point x="195" y="450" type="curve"/>
      <point x="130" y="524" type="line"/>
      <point x="65" y="450" type="line"/>
      <point x="62" y="447"/>
      <point x="58" y="445"/>
      <point x="53" y="445" type="curve" smooth="yes"/>
      <point x="44" y="445"/>
      <point x="37" y="452"/>
      <point x="37" y="460" type="curve"/>
      <point x="36" y="464"/>
      <point x="38" y="468"/>
      <point x="41" y="471" type="curve"/>
      <point x="103" y="541" type="line"/>
      <point x="21" y="572" type="line" smooth="yes"/>
      <point x="13" y="575"/>
      <point x="9" y="584"/>
      <point x="12" y="592" type="curve" smooth="yes"/>
      <point x="15" y="600"/>
      <point x="24" y="605"/>
      <point x="32" y="601" type="curve"/>
      <point x="114" y="571" type="line"/>
      <point x="114" y="658" type="line" smooth="yes"/>
      <point x="114" y="669"/>
      <point x="119" y="674"/>
      <point x="130" y="674" type="curve" smooth="yes"/>
      <point x="141" y="674"/>
      <point x="146" y="669"/>
      <point x="146" y="658" type="curve" smooth="yes"/>
      <point x="146" y="571" type="line"/>
      <point x="228" y="601" type="line"/>
      <point x="236" y="605"/>
      <point x="245" y="600"/>
      <point x="248" y="592" type="curve" smooth="yes"/>
    </contour>
  </outline>
</glyph>
<glyph name="comma" format="1">
  <advance width="85"/>
  <unicode hex="002C"/>
  <outline>
    <contour>
      <point x="16" y="-39"/>
      <point x="11" y="-34"/>
      <point x="11" y="-23" type="curve" smooth="yes"/>
      <point x="11" y="28" type="line" smooth="yes"/>
      <point x="11" y="39"/>
      <point x="16" y="44"/>
      <point x="27" y="44" type="curve" smooth="yes"/>
      <point x="38" y="44"/>
      <point x="43" y="39"/>
      <point x="43" y="28" type="curve" smooth="yes"/>
      <point x="43" y="-23" type="line" smooth="yes"/>
      <point x="43" y="-34"/>
      <point x="38" y="-39"/>
      <point x="27" y="-39" type="curve" smooth="yes"/>
    </contour>
  </outline>
</glyph>
<glyph name="period" format="1">
  <advance width="81"/>
  <unicode hex="002E"/>
  <outline>
    <contour>
      <point x="39" y="43"/>
      <point x="46" y="36"/>
      <point x="46" y="28" type="curve" smooth="yes"/>
      <point x="46" y="16" type="line" smooth="yes"/>
      <point x="46" y="5"/>
      <point x="41" y="0"/>
      <point x="30" y="0" type="curve" smooth="yes"/>
      <point x="19" y="0"/>
      <point x="14" y="5"/>
      <point x="14" y="16" type="curve" smooth="yes"/>
      <point x="14" y="28" type="line" smooth="yes"/>
      <point x="14" y="36"/>
      <point x="21" y="43"/>
      <point x="30" y="43" type="curve" smooth="yes"/>
    </contour>
  </outline>
</glyph>
<glyph name="two" format="1">
  <advance width="320"/>
  <unicode hex="0032"/>
  <outline>
    <contour>
      <point x="143" y="0" type="line"/>
      <point x="34" y="0" type="line" smooth="yes"/>
      <point x="23" y="0"/>
      <point x="18" y="5"/>
      <point x="18" y="16" type="curve" smooth="yes"/>
      <point x="18" y="75"/>
      <point x="26" y="126"/>
      <point x="41" y="167" type="curve" smooth="yes"/>
      <point x="60" y="218"/>
      <point x="89" y="260"/>
      <point x="132" y="299" type="curve" smooth="yes"/>
      <point x="201" y="361"/>
      <point x="236" y="432"/>
      <point x="236" y="513" type="curve" smooth="yes"/>
      <point x="236" y="594"/>
      <point x="202" y="643"/>
      <point x="143" y="643" type="curve" smooth="yes"/>
      <point x="80" y="643"/>
      <point x="49" y="601"/>
      <point x="49" y="509" type="curve" smooth="yes"/>
      <point x="49" y="500"/>
      <point x="42" y="493"/>
      <point x="34" y="493" type="curve" smooth="yes"/>
      <point x="23" y="493"/>
      <point x="18" y="498"/>
      <point x="18" y="509" type="curve" smooth="yes"/>
      <point x="18" y="616"/>
      <point x="60" y="674"/>
      <point x="143" y="674" type="curve" smooth="yes"/>
      <point x="224" y="674"/>
      <point x="268" y="606"/>
      <point x="268" y="513" type="curve" smooth="yes"/>
      <point x="268" y="423"/>
      <point x="230" y="344"/>
      <point x="153" y="275" type="curve" smooth="yes"/>
      <point x="84" y="212"/>
      <point x="53" y="139"/>
      <point x="50" y="31" type="curve"/>
      <point x="143" y="31" type="line"/>
      <point x="252" y="31" type="line" smooth="yes"/>
      <point x="260" y="31"/>
      <point x="268" y="24"/>
      <point x="268" y="16" type="curve" smooth="yes"/>
      <point x="268" y="7"/>
      <point x="260" y="0"/>
      <point x="252" y="0" type="curve" smooth="yes"/>
    </contour>
  </outline>
</glyph>
<glyph name="nine" format="1">
  <advance width="308"/>
  <unicode hex="0039"/>
  <outline>
    <contour>
      <point x="48" y="0"/>
      <point x="6" y="64"/>
      <point x="6" y="163" type="curve" smooth="yes"/>
      <point x="6" y="174"/>
      <point x="11" y="179"/>
      <point x="22" y="179" type="curve" smooth="yes"/>
      <point x="33" y="179"/>
      <point x="38" y="174"/>
      <point x="38" y="163" type="curve" smooth="yes"/>
      <point x="38" y="76"/>
      <point x="71" y="31"/>
      <point x="131" y="31" type="curve" smooth="yes"/>
      <point x="170" y="31"/>
      <point x="193" y="57"/>
      <point x="207" y="94" type="curve" smooth="yes"/>
      <point x="221" y="130"/>
      <point x="224" y="177"/>
      <point x="224" y="220" type="curve" smooth="yes"/>
      <point x="224" y="296" type="line"/>
      <point x="203" y="263"/>
      <point x="171" y="244"/>
      <point x="131" y="244" type="curve" smooth="yes"/>
      <point x="48" y="244"/>
      <point x="6" y="306"/>
      <point x="6" y="422" type="curve" smooth="yes"/>
      <point x="6" y="496" type="line" smooth="yes"/>
      <point x="6" y="604"/>
      <point x="55" y="674"/>
      <point x="131" y="674" type="curve" smooth="yes"/>
      <point x="214" y="674"/>
      <point x="256" y="615"/>
      <point x="256" y="518" type="curve" smooth="yes"/>
      <point x="256" y="422" type="line"/>
      <point x="256" y="421" type="line"/>
      <point x="256" y="220" type="line" smooth="yes"/>
      <point x="256" y="83"/>
      <point x="216" y="0"/>
      <point x="131" y="0" type="curve" smooth="yes"/>
    </contour>
    <contour>
      <point x="74" y="643"/>
      <point x="38" y="584"/>
      <point x="38" y="496" type="curve" smooth="yes"/>
      <point x="38" y="422" type="line" smooth="yes"/>
      <point x="38" y="318"/>
      <point x="70" y="276"/>
      <point x="131" y="276" type="curve" smooth="yes"/>
      <point x="190" y="276"/>
      <point x="209" y="326"/>
      <point x="218" y="362" type="curve" smooth="yes"/>
      <point x="222" y="380"/>
      <point x="224" y="400"/>
      <point x="224" y="421" type="curve" smooth="yes"/>
      <point x="224" y="518" type="line" smooth="yes"/>
      <point x="224" y="601"/>
      <point x="192" y="643"/>
      <point x="131" y="643" type="curve" smooth="yes"/>
    </contour>
  </outline>
</glyph>
<glyph name="colon" format="1">
  <advance width="113"/>
  <unicode hex="003A"/>
  <outline>
    <contour>
      <point x="37" y="514"/>
      <point x="44" y="507"/>
      <point x="44" y="499" type="curve" smooth="yes"/>
      <point x="44" y="454" type="line" smooth="yes"/>
      <point x="44" y="445"/>
      <point x="37" y="438"/>
      <point x="29" y="438" type="curve" smooth="yes"/>
      <point x="18" y="438"/>
      <point x="13" y="443"/>
      <point x="13" y="454" type="curve" smooth="yes"/>
      <point x="13" y="499" type="line" smooth="yes"/>
      <point x="13" y="507"/>
      <point x="20" y="514"/>
      <point x="29" y="514" type="curve" smooth="yes"/>
    </contour>
    <contour>
      <point x="37" y="239"/>
      <point x="44" y="232"/>
      <point x="44" y="223" type="curve" smooth="yes"/>
      <point x="44" y="179" type="line" smooth="yes"/>
      <point x="44" y="170"/>
      <point x="37" y="163"/>
      <point x="29" y="163" type="curve" smooth="yes"/>
      <point x="18" y="163"/>
      <point x="13" y="168"/>
      <point x="13" y="179" type="curve" smooth="yes"/>
      <point x="13" y="223" type="line" smooth="yes"/>
      <point x="13" y="234"/>
      <point x="18" y="239"/>
      <point x="29" y="239" type="curve" smooth="yes"/>
    </contour>
  </outline>
</glyph>
<glyph name="B" format="1">
  <advance width="336"/>
  <unicode hex="0042"/>
  <outline>
    <contour>
      <point x="217" y="330"/>
      <point x="229" y="320"/>
      <point x="239" y="308" type="curve" smooth="yes"/>
      <point x="262" y="279"/>
      <point x="274" y="235"/>
      <point x="274" y="176" type="curve" smooth="yes"/>
      <point x="274" y="59"/>
      <point x="228" y="0"/>
      <point x="125" y="0" type="curve" smooth="yes"/>
      <point x="30" y="0" type="line" smooth="yes"/>
      <point x="19" y="0"/>
      <point x="14" y="5"/>
      <point x="14" y="16" type="curve" smooth="yes"/>
      <point x="14" y="659" type="line" smooth="yes"/>
      <point x="14" y="667"/>
      <point x="21" y="674"/>
      <point x="30" y="674" type="curve" smooth="yes"/>
      <point x="125" y="674" type="line" smooth="yes"/>
      <point x="228" y="674"/>
      <point x="274" y="615"/>
      <point x="274" y="498" type="curve" smooth="yes"/>
      <point x="274" y="440"/>
      <point x="262" y="396"/>
      <point x="239" y="367" type="curve" smooth="yes"/>
      <point x="228" y="354"/>
      <point x="217" y="345"/>
      <point x="202" y="337" type="curve"/>
    </contour>
    <contour>
      <point x="46" y="353" type="line"/>
      <point x="125" y="353" type="line" smooth="yes"/>
      <point x="208" y="353"/>
      <point x="242" y="395"/>
      <point x="242" y="498" type="curve" smooth="yes"/>
      <point x="242" y="602"/>
      <point x="209" y="643"/>
      <point x="125" y="643" type="curve" smooth="yes"/>
      <point x="46" y="643" type="line"/>
    </contour>
    <contour>
      <point x="125" y="31" type="line" smooth="yes"/>
      <point x="209" y="31"/>
      <point x="242" y="72"/>
      <point x="242" y="176" type="curve" smooth="yes"/>
      <point x="242" y="280"/>
      <point x="208" y="322"/>
      <point x="125" y="322" type="curve" smooth="yes"/>
      <point x="46" y="322" type="line"/>
      <point x="46" y="31" type="line"/>
    </contour>
  </outline>
</glyph>
<glyph name="R" format="1">
  <advance width="348"/>
  <unicode hex="0052"/>
  <outline>
    <contour>
      <point x="276" y="279"/>
      <point x="291" y="239"/>
      <point x="291" y="188" type="curve" smooth="yes"/>
      <point x="291" y="17" type="line" smooth="yes"/>
      <point x="291" y="6"/>
      <point x="286" y="1"/>
      <point x="275" y="1" type="curve" smooth="yes"/>
      <point x="267" y="1"/>
      <point x="260" y="8"/>
      <point x="260" y="17" type="curve" smooth="yes"/>
      <point x="260" y="188" type="line" smooth="yes"/>
      <point x="260" y="271"/>
      <point x="214" y="317"/>
      <point x="134" y="317" type="curve" smooth="yes"/>
      <point x="44" y="317" type="line"/>
      <point x="44" y="17" type="line" smooth="yes"/>
      <point x="44" y="6"/>
      <point x="39" y="1"/>
      <point x="28" y="1" type="curve" smooth="yes"/>
      <point x="20" y="1"/>
      <point x="13" y="8"/>
      <point x="13" y="17" type="curve" smooth="yes"/>
      <point x="13" y="660" type="line" smooth="yes"/>
      <point x="13" y="668"/>
      <point x="20" y="675"/>
      <point x="28" y="675" type="curve" smooth="yes"/>
      <point x="134" y="675" type="line" smooth="yes"/>
      <point x="241" y="675"/>
      <point x="290" y="620"/>
      <point x="290" y="497" type="curve" smooth="yes"/>
      <point x="290" y="436"/>
      <point x="278" y="391"/>
      <point x="253" y="362" type="curve" smooth="yes"/>
      <point x="242" y="349"/>
      <point x="229" y="339"/>
      <point x="212" y="332" type="curve"/>
      <point x="225" y="325"/>
      <point x="236" y="318"/>
      <point x="247" y="307" type="curve" smooth="yes"/>
    </contour>
    <contour>
      <point x="44" y="348" type="line"/>
      <point x="134" y="348" type="line" smooth="yes"/>
      <point x="221" y="348"/>
      <point x="258" y="389"/>
      <point x="258" y="497" type="curve" smooth="yes"/>
      <point x="258" y="601"/>
      <point x="222" y="644"/>
      <point x="134" y="644" type="curve" smooth="yes"/>
      <point x="44" y="644" type="line"/>
    </contour>
  </outline>
</glyph>
<glyph name="U" format="1">
  <advance width="348"/>
  <unicode hex="0055"/>
  <outline>
    <contour>
      <point x="112" y="1"/>
      <point x="80" y="8"/>
      <point x="54" y="33" type="curve" smooth="yes"/>
      <point x="28" y="57"/>
      <point x="9" y="98"/>
      <point x="9" y="166" type="curve" smooth="yes"/>
      <point x="9" y="660" type="line" smooth="yes"/>
      <point x="9" y="668"/>
      <point x="16" y="675"/>
      <point x="25" y="675" type="curve" smooth="yes"/>
      <point x="33" y="675"/>
      <point x="40" y="668"/>
      <point x="40" y="660" type="curve" smooth="yes"/>
      <point x="40" y="166" type="line" smooth="yes"/>
      <point x="40" y="106"/>
      <point x="55" y="73"/>
      <point x="75" y="54" type="curve" smooth="yes"/>
      <point x="95" y="35"/>
      <point x="120" y="32"/>
      <point x="143" y="32" type="curve" smooth="yes"/>
      <point x="164" y="32"/>
      <point x="190" y="35"/>
      <point x="210" y="54" type="curve" smooth="yes"/>
      <point x="230" y="73"/>
      <point x="245" y="106"/>
      <point x="245" y="166" type="curve" smooth="yes"/>
      <point x="245" y="660" type="line" smooth="yes"/>
      <point x="245" y="668"/>
      <point x="252" y="675"/>
      <point x="260" y="675" type="curve" smooth="yes"/>
      <point x="269" y="675"/>
      <point x="276" y="668"/>
      <point x="276" y="660" type="curve" smooth="yes"/>
      <point x="276" y="166" type="line" smooth="yes"/>
      <point x="276" y="98"/>
      <point x="259" y="57"/>
      <point x="233" y="33" type="curve" smooth="yes"/>
      <point x="207" y="8"/>
      <point x="174" y="1"/>
      <point x="143" y="1" type="curve" smooth="yes"/>
    </contour>
  </outline>
</glyph>
<glyph name="V" format="1">
  <advance width="401"/>
  <unicode hex="0056"/>
  <outline>
    <contour>
      <point x="174" y="1"/>
      <point x="169" y="5"/>
      <point x="167" y="13" type="curve" smooth="yes"/>
      <point x="6" y="656" type="line"/>
      <point x="3" y="664"/>
      <point x="9" y="672"/>
      <point x="18" y="675" type="curve"/>
      <point x="26" y="678"/>
      <point x="34" y="672"/>
      <point x="37" y="663" type="curve"/>
      <point x="182" y="82" type="line"/>
      <point x="328" y="663" type="line"/>
      <point x="331" y="672"/>
      <point x="339" y="678"/>
      <point x="347" y="675" type="curve" smooth="yes"/>
      <point x="355" y="672"/>
      <point x="361" y="664"/>
      <point x="358" y="656" type="curve"/>
      <point x="198" y="13" type="line" smooth="yes"/>
      <point x="196" y="5"/>
      <point x="191" y="1"/>
      <point x="182" y="1" type="curve" smooth="yes"/>
    </contour>
  </outline>
</glyph>
<glyph name="Z" format="1">
  <advance width="409"/>
  <unicode hex="005A"/>
  <outline>
    <contour>
      <point x="19" y="1" type="line" smooth="yes"/>
      <point x="6" y="1"/>
      <point x="0" y="14"/>
      <point x="4" y="23" type="curve" smooth="yes"/>
      <point x="295" y="643" type="line"/>
      <point x="19" y="643" type="line" smooth="yes"/>
      <point x="8" y="643"/>
      <point x="3" y="648"/>
      <point x="3" y="659" type="curve" smooth="yes"/>
      <point x="3" y="670"/>
      <point x="8" y="675"/>
      <point x="19" y="675" type="curve" smooth="yes"/>
      <point x="320" y="675" type="line" smooth="yes"/>
      <point x="332" y="675"/>
      <point x="339" y="661"/>
      <point x="334" y="652" type="curve"/>
      <point x="43" y="32" type="line"/>
      <point x="320" y="32" type="line" smooth="yes"/>
      <point x="331" y="32"/>
      <point x="336" y="27"/>
      <point x="336" y="16" type="curve" smooth="yes"/>
      <point x="336" y="8"/>
      <point x="329" y="1"/>
      <point x="320" y="1" type="curve" smooth="yes"/>
    </contour>
  </outline>
</glyph>
<glyph name="underscore" format="1">
  <advance width="461"/>
  <unicode hex="005F"/>
  <outline>
    <contour>
      <point x="26" y="-32" type="line" smooth="yes"/>
      <point x="15" y="-32"/>
      <point x="10" y="-27"/>
      <point x="10" y="-16" type="curve" smooth="yes"/>
      <point x="10" y="-8"/>
      <point x="17" y="-1"/>
      <point x="26" y="-1" type="curve" smooth="yes"/>
      <point x="398" y="-1" type="line" smooth="yes"/>
      <point x="407" y="-1"/>
      <point x="414" y="-8"/>
      <point x="414" y="-16" type="curve" smooth="yes"/>
      <point x="414" y="-27"/>
      <point x="409" y="-32"/>
      <point x="398" y="-32" type="curve" smooth="yes"/>
    </contour>
  </outline>
</glyph>
<glyph name="c" format="1">
  <advance width="344"/>
  <unicode hex="0063"/>
  <outline>
    <contour>
      <point x="121" y="0"/>
      <point x="85" y="7"/>
      <point x="57" y="34" type="curve" smooth="yes"/>
      <point x="29" y="61"/>
      <point x="10" y="104"/>
      <point x="10" y="179" type="curve" smooth="yes"/>
      <point x="10" y="496" type="line" smooth="yes"/>
      <point x="10" y="569"/>
      <point x="29" y="615"/>
      <point x="57" y="641" type="curve" smooth="yes"/>
      <point x="85" y="667"/>
      <point x="121" y="674"/>
      <point x="153" y="674" type="curve" smooth="yes"/>
      <point x="186" y="674"/>
      <point x="222" y="667"/>
      <point x="250" y="641" type="curve" smooth="yes"/>
      <point x="278" y="615"/>
      <point x="297" y="569"/>
      <point x="297" y="496" type="curve" smooth="yes"/>
      <point x="297" y="485"/>
      <point x="292" y="480"/>
      <point x="281" y="480" type="curve" smooth="yes"/>
      <point x="270" y="480"/>
      <point x="265" y="485"/>
      <point x="265" y="496" type="curve" smooth="yes"/>
      <point x="265" y="596"/>
      <point x="229" y="643"/>
      <point x="153" y="643" type="curve" smooth="yes"/>
      <point x="80" y="643"/>
      <point x="41" y="596"/>
      <point x="41" y="496" type="curve" smooth="yes"/>
      <point x="41" y="179" type="line" smooth="yes"/>
      <point x="41" y="79"/>
      <point x="81" y="31"/>
      <point x="153" y="31" type="curve" smooth="yes"/>
      <point x="228" y="31"/>
      <point x="265" y="79"/>
      <point x="265" y="179" type="curve" smooth="yes"/>
      <point x="265" y="190"/>
      <point x="270" y="195"/>
      <point x="281" y="195" type="curve" smooth="yes"/>
      <point x="292" y="195"/>
      <point x="297" y="190"/>
      <point x="297" y="179" type="curve" smooth="yes"/>
      <point x="297" y="104"/>
      <point x="278" y="61"/>
      <point x="250" y="34" type="curve" smooth="yes"/>
      <point x="222" y="7"/>
      <point x="186" y="0"/>
      <point x="153" y="0" type="curve" smooth="yes"/>
    </contour>
  </outline>
</glyph>
<glyph name="f" format="1">
  <advance width="308"/>
  <unicode hex="0066"/>
  <outline>
    <contour>
      <point x="252" y="353"/>
      <point x="257" y="348"/>
      <point x="257" y="337" type="curve" smooth="yes"/>
      <point x="257" y="329"/>
      <point x="250" y="322"/>
      <point x="241" y="322" type="curve" smooth="yes"/>
      <point x="46" y="322" type="line"/>
      <point x="46" y="16" type="line" smooth="yes"/>
      <point x="46" y="7"/>
      <point x="39" y="0"/>
      <point x="31" y="0" type="curve" smooth="yes"/>
      <point x="20" y="0"/>
      <point x="15" y="5"/>
      <point x="15" y="16" type="curve" smooth="yes"/>
      <point x="15" y="659" type="line" smooth="yes"/>
      <point x="15" y="667"/>
      <point x="22" y="674"/>
      <point x="31" y="674" type="curve" smooth="yes"/>
      <point x="241" y="674" type="line" smooth="yes"/>
      <point x="250" y="674"/>
      <point x="257" y="667"/>
      <point x="257" y="659" type="curve" smooth="yes"/>
      <point x="257" y="648"/>
      <point x="252" y="643"/>
      <point x="241" y="643" type="curve" smooth="yes"/>
      <point x="46" y="643" type="line"/>
      <point x="46" y="353" type="line"/>
      <point x="241" y="353" type="line" smooth="yes"/>
    </contour>
  </outline>
</glyph>
<glyph name="p" format="1">
  <advance width="340"/>
  <unicode hex="0070"/>
  <outline>
    <contour>
      <point x="15" y="0"/>
      <point x="10" y="5"/>
      <point x="10" y="16" type="curve" smooth="yes"/>
      <point x="10" y="659" type="line" smooth="yes"/>
      <point x="10" y="667"/>
      <point x="17" y="674"/>
      <point x="26" y="674" type="curve" smooth="yes"/>
      <point x="132" y="674" type="line" smooth="yes"/>
      <point x="240" y="674"/>
      <point x="288" y="617"/>
      <point x="288" y="498" type="curve" smooth="yes"/>
      <point x="288" y="379"/>
      <point x="240" y="322"/>
      <point x="132" y="322" type="curve" smooth="yes"/>
      <point x="42" y="322" type="line"/>
      <point x="42" y="16" type="line" smooth="yes"/>
      <point x="42" y="5"/>
      <point x="37" y="0"/>
      <point x="26" y="0" type="curve" smooth="yes"/>
    </contour>
    <contour>
      <point x="42" y="353" type="line"/>
      <point x="132" y="353" type="line" smooth="yes"/>
      <point x="219" y="353"/>
      <point x="256" y="394"/>
      <point x="256" y="498" type="curve" smooth="yes"/>
      <point x="256" y="602"/>
      <point x="220" y="643"/>
      <point x="132" y="643" type="curve" smooth="yes"/>
      <point x="42" y="643" type="line"/>
    </contour>
  </outline>
</glyph>
<glyph name="q" format="1">
  <advance width="348"/>
  <unicode hex="0071"/>
  <outline>
    <contour>
      <point x="295" y="1" type="line"/>
      <point x="300" y="-6"/>
      <point x="299" y="-16"/>
      <point x="292" y="-21" type="curve"/>
      <point x="290" y="-24"/>
      <point x="287" y="-25"/>
      <point x="283" y="-25" type="curve" smooth="yes"/>
      <point x="277" y="-25"/>
      <point x="273" y="-23"/>
      <point x="270" y="-19" type="curve"/>
      <point x="234" y="25" type="line"/>
      <point x="213" y="8"/>
      <point x="185" y="0"/>
      <point x="150" y="0" type="curve" smooth="yes"/>
      <point x="55" y="0"/>
      <point x="7" y="67"/>
      <point x="7" y="182" type="curve" smooth="yes"/>
      <point x="7" y="499" type="line" smooth="yes"/>
      <point x="7" y="614"/>
      <point x="55" y="674"/>
      <point x="150" y="674" type="curve" smooth="yes"/>
      <point x="246" y="674"/>
      <point x="293" y="616"/>
      <point x="293" y="499" type="curve" smooth="yes"/>
      <point x="293" y="182" type="line" smooth="yes"/>
      <point x="293" y="123"/>
      <point x="281" y="79"/>
      <point x="258" y="49" type="curve"/>
      <point x="258" y="48"/>
      <point x="258" y="48"/>
      <point x="258" y="48" type="curve" smooth="yes"/>
      <point x="257" y="48"/>
      <point x="257" y="48"/>
      <point x="257" y="47" type="curve"/>
    </contour>
    <contour>
      <point x="175" y="31"/>
      <point x="197" y="37"/>
      <point x="214" y="49" type="curve"/>
      <point x="180" y="92" type="line"/>
      <point x="173" y="99"/>
      <point x="175" y="107"/>
      <point x="182" y="114" type="curve"/>
      <point x="190" y="119"/>
      <point x="197" y="119"/>
      <point x="204" y="112" type="curve"/>
      <point x="236" y="72" type="line"/>
      <point x="253" y="97"/>
      <point x="262" y="134"/>
      <point x="262" y="182" type="curve" smooth="yes"/>
      <point x="262" y="499" type="line" smooth="yes"/>
      <point x="262" y="598"/>
      <point x="225" y="643"/>
      <point x="150" y="643" type="curve" smooth="yes"/>
      <point x="75" y="643"/>
      <point x="38" y="598"/>
      <point x="38" y="499" type="curve" smooth="yes"/>
      <point x="38" y="182" type="line" smooth="yes"/>
      <point x="38" y="81"/>
      <point x="77" y="31"/>
      <point x="150" y="31" type="curve" smooth="yes"/>
    </contour>
  </outline>
</glyph>
<glyph name="t" format="1">
  <advance width="380"/>
  <unicode hex="0074"/>
  <outline>
    <contour>
      <point x="333" y="675"/>
      <point x="340" y="668"/>
      <point x="340" y="660" type="curve" smooth="yes"/>
      <point x="340" y="649"/>
      <point x="335" y="644"/>
      <point x="324" y="644" type="curve" smooth="yes"/>
      <point x="179" y="644" type="line"/>
      <point x="179" y="17" type="line" smooth="yes"/>
      <point x="179" y="8"/>
      <point x="171" y="1"/>
      <point x="163" y="1" type="curve" smooth="yes"/>
      <point x="152" y="1"/>
      <point x="147" y="6"/>
      <point x="147" y="17" type="curve" smooth="yes"/>
      <point x="147" y="644" type="line"/>
      <point x="1" y="644" type="line" smooth="yes"/>
      <point x="-7" y="644"/>
      <point x="-14" y="651"/>
      <point x="-14" y="660" type="curve" smooth="yes"/>
      <point x="-14" y="668"/>
      <point x="-7" y="675"/>
      <point x="1" y="675" type="curve" smooth="yes"/>
      <point x="324" y="675" type="line" smooth="yes"/>
    </contour>
  </outline>
</glyph>
<glyph name="dotlessi" format="1">
  <advance width="105"/>
  <unicode hex="0131"/>
  <outline>
    <contour>
      <point x="23" y="0"/>
      <point x="18" y="5"/>
      <point x="18" y="16" type="curve" smooth="yes"/>
      <point x="18" y="659" type="line" smooth="yes"/>
      <point x="18" y="667"/>
      <point x="25" y="674"/>
      <point x="34" y="674" type="curve" smooth="yes"/>
      <point x="43" y="674"/>
      <point x="50" y="667"/>
      <point x="50" y="659" type="curve" smooth="yes"/>
      <point x="50" y="16" type="line" smooth="yes"/>
      <point x="50" y="5"/>
      <point x="45" y="0"/>
      <point x="34" y="0" type="curve" smooth="yes"/>
    </contour>
  </outline>
</glyph>
<glyph name="emdash" format="1">
  <advance width="299"/>
  <unicode hex="2014"/>
  <outline>
    <contour>
      <point x="13" y="321" type="line"/>
      <point x="13" y="352" type="line"/>
      <point x="257" y="352" type="line"/>
      <point x="257" y="321" type="line"/>
      <point x="257" y="321" type="line"/>
    </contour>
  </outline>
</glyph>
<glyph name="quotedblright" format="1">
  <advance width="162"/>
  <unicode hex="201D"/>
  <outline>
    <contour>
      <point x="37" y="675"/>
      <point x="42" y="670"/>
      <point x="42" y="659" type="curve" smooth="yes"/>
      <point x="42" y="602" type="line" smooth="yes"/>
      <point x="42" y="594"/>
      <point x="35" y="587"/>
      <point x="26" y="587" type="curve" smooth="yes"/>
      <point x="18" y="587"/>
      <point x="11" y="594"/>
      <point x="11" y="602" type="curve" smooth="yes"/>
      <point x="11" y="659" type="line" smooth="yes"/>
      <point x="11" y="668"/>
      <point x="18" y="675"/>
      <point x="26" y="675" type="curve" smooth="yes"/>
    </contour>
    <contour>
      <point x="97" y="675"/>
      <point x="102" y="670"/>
      <point x="102" y="659" type="curve" smooth="yes"/>
      <point x="102" y="602" type="line" smooth="yes"/>
      <point x="102" y="594"/>
      <point x="95" y="587"/>
      <point x="86" y="587" type="curve" smooth="yes"/>
      <point x="77" y="587"/>
      <point x="70" y="594"/>
      <point x="70" y="602" type="curve" smooth="yes"/>
      <point x="70" y="659" type="line" smooth="yes"/>
      <point x="70" y="670"/>
      <point x="75" y="675"/>
      <point x="86" y="675" type="curve" smooth="yes"/>
    </contour>
  </outline>
</glyph>
